<svg xmlns="http://www.w3.org/2000/svg" width="360" height="480" viewBox="0 0 360 480" fill="none">
  <defs>
    <linearGradient id="bg" x1="180" y1="0" x2="180" y2="480" gradientUnits="userSpaceOnUse">
      <stop stop-color="#0c1220"/>
      <stop offset="1" stop-color="#050508"/>
    </linearGradient>
    <linearGradient id="sil" x1="180" y1="120" x2="180" y2="420" gradientUnits="userSpaceOnUse">
      <stop stop-color="#1e293b" stop-opacity="0.95"/>
      <stop offset="1" stop-color="#0f172a" stop-opacity="0.85"/>
    </linearGradient>
    <filter id="soft" x="-20%" y="-20%" width="140%" height="140%">
      <feGaussianBlur stdDeviation="2" result="b"/>
      <feMerge>
        <feMergeNode in="b"/>
        <feMergeNode in="SourceGraphic"/>
      </feMerge>
    </filter>
  </defs>
  <rect width="360" height="480" fill="url(#bg)"/>
  <ellipse cx="180" cy="395" rx="140" ry="28" fill="#00e5ff" fill-opacity="0.06"/>
  <path fill="url(#sil)" filter="url(#soft)" d="M90 420c0-80 40-120 90-120s90 40 90 120v60H90v-60z"/>
  <ellipse cx="180" cy="175" rx="72" ry="78" fill="url(#sil)"/>
  <path fill="#334155" fill-opacity="0.5" d="M120 200c8-36 32-58 60-58s52 22 60 58c-16 8-36 12-60 12s-44-4-60-12z"/>
  <rect x="135" y="248" width="90" height="8" rx="4" fill="#475569" fill-opacity="0.35"/>
</svg>
